<svg width="25" height="25" viewBox="0 0 25 25" fill="none" xmlns="http://www.w3.org/2000/svg">
<path d="M11.3541 2.18733C6.56245 2.70817 2.70828 6.56233 2.18745 11.2498C1.66661 16.1457 4.47912 20.5207 8.74995 22.1873C9.06245 22.2915 9.37495 22.0832 9.37495 21.6665V19.9998C9.37495 19.9998 8.95828 20.104 8.43745 20.104C6.97912 20.104 6.35412 18.854 6.24995 18.1248C6.14578 17.7082 5.93745 17.3957 5.62495 17.0832C5.31245 16.979 5.20828 16.979 5.20828 16.8748C5.20828 16.6665 5.52078 16.6665 5.62495 16.6665C6.24995 16.6665 6.77078 17.3957 6.97912 17.7082C7.49995 18.5415 8.12495 18.7498 8.43745 18.7498C8.85412 18.7498 9.16662 18.6457 9.37495 18.5415C9.47912 17.8123 9.79162 17.0832 10.4166 16.6665C8.02078 16.1457 6.24995 14.7915 6.24995 12.4998C6.24995 11.354 6.77078 10.2082 7.49995 9.37483C7.39578 9.1665 7.29162 8.64567 7.29162 7.9165C7.29162 7.49983 7.29162 6.87483 7.60412 6.24983C7.60412 6.24983 9.06245 6.24983 10.5208 7.604C11.0416 7.39567 11.7708 7.2915 12.4999 7.2915C13.2291 7.2915 13.9583 7.39567 14.5833 7.604C15.9374 6.24983 17.4999 6.24983 17.4999 6.24983C17.7083 6.87483 17.7083 7.49983 17.7083 7.9165C17.7083 8.74983 17.6041 9.1665 17.4999 9.37483C18.2291 10.2082 18.75 11.2498 18.75 12.4998C18.75 14.7915 16.9791 16.1457 14.5833 16.6665C15.2083 17.1873 15.6249 18.1248 15.6249 19.0623V21.7707C15.6249 22.0832 15.9374 22.3957 16.3541 22.2915C20.2083 20.729 22.9166 16.979 22.9166 12.604C22.9166 6.354 17.6041 1.45817 11.3541 2.18733Z" fill="white"/>
</svg>
