<svg width="24" height="24" viewBox="0 0 24 24" fill="none" xmlns="http://www.w3.org/2000/svg">
<path d="M19.2 3.2002H4.79995C3.91595 3.2002 3.19995 3.9162 3.19995 4.8002V19.2002C3.19995 20.0842 3.91595 20.8002 4.79995 20.8002H19.2C20.084 20.8002 20.8 20.0842 20.8 19.2002V4.8002C20.8 3.9162 20.084 3.2002 19.2 3.2002ZM8.76315 17.6002H6.40315V10.0066H8.76315V17.6002ZM7.55915 8.921C6.79835 8.921 6.18315 8.3042 6.18315 7.545C6.18315 6.7858 6.79915 6.1698 7.55915 6.1698C8.31755 6.1698 8.93435 6.7866 8.93435 7.545C8.93435 8.3042 8.31755 8.921 7.55915 8.921ZM17.6032 17.6002H15.2448V13.9074C15.2448 13.0266 15.2288 11.8938 14.0184 11.8938C12.7904 11.8938 12.6016 12.853 12.6016 13.8434V17.6002H10.2432V10.0066H12.5072V11.0442H12.5392C12.8544 10.4474 13.624 9.8178 14.772 9.8178C17.1616 9.8178 17.6032 11.3906 17.6032 13.4354V17.6002Z" fill="white"/>
</svg>
